# Blender 3.5.1
# www.blender.org
o Cube
v -0.621554 0.127349 0.621554
v -0.011482 2.801433 0.011482
v -0.621554 0.127349 -0.621554
v -0.011482 2.801433 -0.011482
v 0.621554 0.127349 0.621554
v 0.011482 2.801433 0.011482
v 0.621554 0.127349 -0.621554
v 0.011482 2.801433 -0.011482
v -0.653150 0.370448 0.653150
v -0.672213 0.613546 0.672213
v -0.640740 0.856645 0.640740
v -0.553418 1.099743 0.553418
v -0.436014 1.342842 0.436014
v -0.321515 1.585940 0.321515
v -0.227769 1.829039 0.227769
v -0.144676 2.072137 0.144676
v -0.075805 2.315236 0.075805
v -0.028844 2.558334 0.028844
v -0.028844 2.558334 -0.028844
v -0.075805 2.315236 -0.075805
v -0.144676 2.072137 -0.144676
v -0.227769 1.829039 -0.227769
v -0.321515 1.585940 -0.321515
v -0.436014 1.342842 -0.436014
v -0.553418 1.099743 -0.553418
v -0.640740 0.856645 -0.640740
v -0.672213 0.613546 -0.672213
v -0.653150 0.370448 -0.653150
v 0.028844 2.558334 -0.028844
v 0.075805 2.315236 -0.075805
v 0.144676 2.072137 -0.144676
v 0.227769 1.829039 -0.227769
v 0.321515 1.585940 -0.321515
v 0.436014 1.342842 -0.436014
v 0.553418 1.099743 -0.553418
v 0.640740 0.856645 -0.640740
v 0.672213 0.613546 -0.672213
v 0.653150 0.370448 -0.653150
v 0.028844 2.558334 0.028844
v 0.075805 2.315236 0.075805
v 0.144676 2.072137 0.144676
v 0.227769 1.829039 0.227769
v 0.321515 1.585940 0.321515
v 0.436014 1.342842 0.436014
v 0.553418 1.099743 0.553418
v 0.640740 0.856645 0.640740
v 0.672213 0.613546 0.672213
v 0.653150 0.370448 0.653150
v -0.722416 0.087606 0.722416
v -0.722416 0.087606 -0.722416
v 0.722416 0.087606 0.722416
v 0.722416 0.087606 -0.722416
v -0.722416 -0.061585 0.722416
v -0.722416 -0.061585 -0.722416
v 0.722416 -0.061585 0.722416
v 0.722416 -0.061585 -0.722416
vn -0.9975 0.0712 -0.0000
vn -0.0000 0.0712 -0.9975
vn 0.9975 0.0712 -0.0000
vn -0.0000 0.0712 0.9975
vn -0.0000 1.0000 -0.0000
vn -0.0000 -0.1289 0.9917
vn -0.0000 -0.0782 0.9969
vn -0.0000 0.1284 0.9917
vn -0.0000 0.3381 0.9411
vn -0.0000 0.4349 0.9005
vn -0.0000 0.4261 0.9047
vn -0.0000 0.3598 0.9330
vn -0.0000 0.3234 0.9462
vn -0.0000 0.2726 0.9621
vn -0.0000 0.1897 0.9818
vn 0.9917 -0.1289 -0.0000
vn 0.9969 -0.0782 -0.0000
vn 0.9917 0.1284 -0.0000
vn 0.9411 0.3381 -0.0000
vn 0.9005 0.4349 -0.0000
vn 0.9047 0.4261 -0.0000
vn 0.9330 0.3598 -0.0000
vn 0.9462 0.3234 -0.0000
vn 0.9621 0.2726 -0.0000
vn 0.9818 0.1897 -0.0000
vn -0.0000 -0.1289 -0.9917
vn -0.0000 -0.0782 -0.9969
vn -0.0000 0.1284 -0.9917
vn -0.0000 0.3381 -0.9411
vn -0.0000 0.4349 -0.9005
vn -0.0000 0.4261 -0.9047
vn -0.0000 0.3598 -0.9330
vn -0.0000 0.3234 -0.9462
vn -0.0000 0.2726 -0.9621
vn -0.0000 0.1897 -0.9818
vn -0.9917 -0.1289 -0.0000
vn -0.9969 -0.0782 -0.0000
vn -0.9917 0.1284 -0.0000
vn -0.9411 0.3381 -0.0000
vn -0.9005 0.4349 -0.0000
vn -0.9047 0.4261 -0.0000
vn -0.9330 0.3598 -0.0000
vn -0.9462 0.3234 -0.0000
vn -0.9621 0.2726 -0.0000
vn -0.9818 0.1897 -0.0000
vn -0.0000 0.9304 0.3666
vn 1.0000 -0.0000 -0.0000
vn -0.0000 0.9304 -0.3666
vn -0.3666 0.9304 -0.0000
vn 0.3666 0.9304 -0.0000
vn -0.0000 -1.0000 -0.0000
vn -1.0000 -0.0000 -0.0000
vn -0.0000 -0.0000 1.0000
vn -0.0000 -0.0000 -1.0000
vn -0.9463 0.3234 -0.0000
s 0
f 2//1 19//1 18//1
f 4//2 29//2 19//2
f 8//3 39//3 29//3
f 6//4 18//4 39//4
f 4//5 6//5 8//5
f 48//6 1//6 5//6
f 47//7 9//7 48//7
f 46//8 10//8 47//8
f 45//9 11//9 46//9
f 45//10 13//10 12//10
f 43//11 13//11 44//11
f 42//12 14//12 43//12
f 41//13 15//13 42//13
f 40//14 16//14 41//14
f 40//15 18//15 17//15
f 38//16 5//16 7//16
f 37//17 48//17 38//17
f 36//18 47//18 37//18
f 35//19 46//19 36//19
f 34//20 45//20 35//20
f 33//21 44//21 34//21
f 32//22 43//22 33//22
f 31//23 42//23 32//23
f 30//24 41//24 31//24
f 30//25 39//25 40//25
f 28//26 7//26 3//26
f 27//27 38//27 28//27
f 26//28 37//28 27//28
f 25//29 36//29 26//29
f 24//30 35//30 25//30
f 23//31 34//31 24//31
f 22//32 33//32 23//32
f 21//33 32//33 22//33
f 20//34 31//34 21//34
f 20//35 29//35 30//35
f 9//36 3//36 1//36
f 10//37 28//37 9//37
f 11//38 27//38 10//38
f 12//39 26//39 11//39
f 13//40 25//40 12//40
f 14//41 24//41 13//41
f 14//42 22//42 23//42
f 15//43 21//43 22//43
f 17//44 21//44 16//44
f 17//45 19//45 20//45
f 1//46 51//46 5//46
f 51//47 56//47 52//47
f 7//48 50//48 3//48
f 3//49 49//49 1//49
f 5//50 52//50 7//50
f 56//51 53//51 54//51
f 50//52 53//52 49//52
f 49//53 55//53 51//53
f 52//54 54//54 50//54
f 2//1 4//1 19//1
f 4//2 8//2 29//2
f 8//3 6//3 39//3
f 6//4 2//4 18//4
f 4//5 2//5 6//5
f 48//6 9//6 1//6
f 47//7 10//7 9//7
f 46//8 11//8 10//8
f 45//9 12//9 11//9
f 45//10 44//10 13//10
f 43//11 14//11 13//11
f 42//12 15//12 14//12
f 41//13 16//13 15//13
f 40//14 17//14 16//14
f 40//15 39//15 18//15
f 38//16 48//16 5//16
f 37//17 47//17 48//17
f 36//18 46//18 47//18
f 35//19 45//19 46//19
f 34//20 44//20 45//20
f 33//21 43//21 44//21
f 32//22 42//22 43//22
f 31//23 41//23 42//23
f 30//24 40//24 41//24
f 30//25 29//25 39//25
f 28//26 38//26 7//26
f 27//27 37//27 38//27
f 26//28 36//28 37//28
f 25//29 35//29 36//29
f 24//30 34//30 35//30
f 23//31 33//31 34//31
f 22//32 32//32 33//32
f 21//33 31//33 32//33
f 20//34 30//34 31//34
f 20//35 19//35 29//35
f 9//36 28//36 3//36
f 10//37 27//37 28//37
f 11//38 26//38 27//38
f 12//39 25//39 26//39
f 13//40 24//40 25//40
f 14//41 23//41 24//41
f 14//42 15//42 22//42
f 15//55 16//55 21//55
f 17//44 20//44 21//44
f 17//45 18//45 19//45
f 1//46 49//46 51//46
f 51//47 55//47 56//47
f 7//48 52//48 50//48
f 3//49 50//49 49//49
f 5//50 51//50 52//50
f 56//51 55//51 53//51
f 50//52 54//52 53//52
f 49//53 53//53 55//53
f 52//54 56//54 54//54
o Cylinder
v 0.458622 0.134508 0.356310
v 0.458622 -1.403554 0.356310
v 0.555686 0.134508 0.412349
v 0.555686 -1.403554 0.412349
v 0.555686 0.134508 0.524428
v 0.555686 -1.403554 0.524428
v 0.458622 0.134508 0.580468
v 0.458622 -1.403554 0.580468
v 0.361559 0.134508 0.524428
v 0.361559 -1.403554 0.524428
v 0.361559 0.134508 0.412349
v 0.361559 -1.403554 0.412349
v -0.458622 0.134508 0.356310
v -0.458622 -1.403554 0.356310
v -0.555685 0.134508 0.412349
v -0.555685 -1.403554 0.412349
v -0.555685 0.134508 0.524428
v -0.555685 -1.403554 0.524428
v -0.458622 0.134508 0.580468
v -0.458622 -1.403554 0.580468
v -0.361559 0.134508 0.524428
v -0.361559 -1.403554 0.524428
v -0.361559 0.134508 0.412349
v -0.361559 -1.403554 0.412349
v 0.458622 0.134508 -0.356310
v 0.458622 -1.403554 -0.356310
v 0.555686 0.134508 -0.412349
v 0.555686 -1.403554 -0.412349
v 0.555686 0.134508 -0.524428
v 0.555686 -1.403554 -0.524428
v 0.458622 0.134508 -0.580467
v 0.458622 -1.403554 -0.580467
v 0.361559 0.134508 -0.524428
v 0.361559 -1.403554 -0.524428
v 0.361559 0.134508 -0.412349
v 0.361559 -1.403554 -0.412349
v -0.458622 0.134508 -0.356310
v -0.458622 -1.403554 -0.356310
v -0.555685 0.134508 -0.412349
v -0.555685 -1.403554 -0.412349
v -0.555685 0.134508 -0.524428
v -0.555685 -1.403554 -0.524428
v -0.458622 0.134508 -0.580467
v -0.458622 -1.403554 -0.580467
v -0.361559 0.134508 -0.524428
v -0.361559 -1.403554 -0.524428
v -0.361559 0.134508 -0.412349
v -0.361559 -1.403554 -0.412349
vn 0.5000 -0.0000 -0.8660
vn 1.0000 -0.0000 -0.0000
vn 0.5000 -0.0000 0.8660
vn -0.5000 -0.0000 0.8660
vn -0.0000 -1.0000 -0.0000
vn -1.0000 -0.0000 -0.0000
vn -0.5000 -0.0000 -0.8660
vn -0.0000 1.0000 -0.0000
s 0
f 58//56 57//56 59//56
f 60//57 59//57 61//57
f 62//58 61//58 63//58
f 64//59 63//59 65//59
f 58//60 62//60 66//60
f 66//61 65//61 67//61
f 68//62 67//62 57//62
f 59//63 67//63 63//63
f 71//62 69//62 70//62
f 73//61 71//61 72//61
f 75//59 73//59 74//59
f 77//58 75//58 76//58
f 74//60 70//60 78//60
f 79//57 77//57 78//57
f 69//56 79//56 80//56
f 79//63 71//63 75//63
f 83//58 81//58 82//58
f 85//57 83//57 84//57
f 87//56 85//56 86//56
f 89//62 87//62 88//62
f 86//60 82//60 90//60
f 91//61 89//61 90//61
f 81//59 91//59 92//59
f 91//63 83//63 87//63
f 94//59 93//59 95//59
f 96//61 95//61 97//61
f 98//62 97//62 99//62
f 100//56 99//56 101//56
f 94//60 98//60 102//60
f 102//57 101//57 103//57
f 104//58 103//58 93//58
f 95//63 103//63 99//63
f 58//56 59//56 60//56
f 60//57 61//57 62//57
f 62//58 63//58 64//58
f 64//59 65//59 66//59
f 62//60 58//60 60//60
f 58//60 66//60 68//60
f 66//60 62//60 64//60
f 66//61 67//61 68//61
f 68//62 57//62 58//62
f 67//63 59//63 57//63
f 59//63 63//63 61//63
f 63//63 67//63 65//63
f 71//62 70//62 72//62
f 73//61 72//61 74//61
f 75//59 74//59 76//59
f 77//58 76//58 78//58
f 70//60 74//60 72//60
f 74//60 78//60 76//60
f 78//60 70//60 80//60
f 79//57 78//57 80//57
f 69//56 80//56 70//56
f 71//63 79//63 69//63
f 79//63 75//63 77//63
f 75//63 71//63 73//63
f 83//58 82//58 84//58
f 85//57 84//57 86//57
f 87//56 86//56 88//56
f 89//62 88//62 90//62
f 82//60 86//60 84//60
f 86//60 90//60 88//60
f 90//60 82//60 92//60
f 91//61 90//61 92//61
f 81//59 92//59 82//59
f 83//63 91//63 81//63
f 91//63 87//63 89//63
f 87//63 83//63 85//63
f 94//59 95//59 96//59
f 96//61 97//61 98//61
f 98//62 99//62 100//62
f 100//56 101//56 102//56
f 98//60 94//60 96//60
f 94//60 102//60 104//60
f 102//60 98//60 100//60
f 102//57 103//57 104//57
f 104//58 93//58 94//58
f 103//63 95//63 93//63
f 95//63 99//63 97//63
f 99//63 103//63 101//63
o Cube.001
v -0.645770 -1.029272 0.645770
v -0.645770 -6.529743 0.645770
v -0.645770 -1.029272 -0.645770
v -0.645770 -6.529743 -0.645770
v 0.645770 -1.029272 0.645770
v 0.645770 -6.529743 0.645770
v 0.645770 -1.029272 -0.645770
v 0.645770 -6.529743 -0.645770
vn -1.0000 -0.0000 -0.0000
vn -0.0000 -0.0000 -1.0000
vn 1.0000 -0.0000 -0.0000
vn -0.0000 -0.0000 1.0000
vn -0.0000 1.0000 -0.0000
vn -0.0000 -1.0000 -0.0000
s 0
f 106//64 105//64 107//64
f 108//65 107//65 111//65
f 112//66 111//66 109//66
f 110//67 109//67 105//67
f 111//68 107//68 105//68
f 108//69 112//69 110//69
f 106//64 107//64 108//64
f 108//65 111//65 112//65
f 112//66 109//66 110//66
f 110//67 105//67 106//67
f 111//68 105//68 109//68
f 108//69 110//69 106//69
