# Blender 3.5.1
# www.blender.org
o dome
v -0.621554 0.287104 0.621554
v -0.011482 2.961188 0.011482
v -0.621554 0.287104 -0.621554
v -0.011482 2.961188 -0.011482
v 0.621554 0.287104 0.621554
v 0.011482 2.961188 0.011482
v 0.621554 0.287104 -0.621554
v 0.011482 2.961188 -0.011482
v -0.653150 0.530203 0.653150
v -0.672213 0.773301 0.672213
v -0.640740 1.016400 0.640740
v -0.553418 1.259498 0.553418
v -0.436014 1.502597 0.436014
v -0.321515 1.745695 0.321515
v -0.227769 1.988794 0.227769
v -0.144676 2.231893 0.144676
v -0.075805 2.474991 0.075805
v -0.028844 2.718090 0.028844
v -0.028844 2.718090 -0.028844
v -0.075805 2.474991 -0.075805
v -0.144676 2.231893 -0.144676
v -0.227769 1.988794 -0.227769
v -0.321515 1.745695 -0.321515
v -0.436014 1.502597 -0.436014
v -0.553418 1.259498 -0.553418
v -0.640740 1.016400 -0.640740
v -0.672213 0.773301 -0.672213
v -0.653150 0.530203 -0.653150
v 0.028844 2.718090 -0.028844
v 0.075805 2.474991 -0.075805
v 0.144676 2.231893 -0.144676
v 0.227769 1.988794 -0.227769
v 0.321515 1.745695 -0.321515
v 0.436014 1.502597 -0.436014
v 0.553418 1.259498 -0.553418
v 0.640740 1.016400 -0.640740
v 0.672213 0.773301 -0.672213
v 0.653150 0.530203 -0.653150
v 0.028844 2.718090 0.028844
v 0.075805 2.474991 0.075805
v 0.144676 2.231893 0.144676
v 0.227769 1.988794 0.227769
v 0.321515 1.745695 0.321515
v 0.436014 1.502597 0.436014
v 0.553418 1.259498 0.553418
v 0.640740 1.016400 0.640740
v 0.672213 0.773301 0.672213
v 0.653150 0.530203 0.653150
v -0.722416 0.247361 0.722416
v -0.722416 0.247361 -0.722416
v 0.722416 0.247361 0.722416
v 0.722416 0.247361 -0.722416
v -0.722416 0.098170 0.722416
v -0.722416 0.098170 -0.722416
v 0.722416 0.098170 0.722416
v 0.722416 0.098170 -0.722416
vn -0.9975 0.0712 -0.0000
vn -0.0000 0.0712 -0.9975
vn 0.9975 0.0712 -0.0000
vn -0.0000 0.0712 0.9975
vn -0.0000 1.0000 -0.0000
vn -0.0000 -0.1289 0.9917
vn -0.0000 -0.0782 0.9969
vn -0.0000 0.1284 0.9917
vn -0.0000 0.3381 0.9411
vn -0.0000 0.4349 0.9005
vn -0.0000 0.4261 0.9047
vn -0.0000 0.3598 0.9330
vn -0.0000 0.3234 0.9462
vn -0.0000 0.2726 0.9621
vn -0.0000 0.1897 0.9818
vn 0.9917 -0.1289 -0.0000
vn 0.9969 -0.0782 -0.0000
vn 0.9917 0.1284 -0.0000
vn 0.9411 0.3381 -0.0000
vn 0.9005 0.4349 -0.0000
vn 0.9047 0.4261 -0.0000
vn 0.9330 0.3598 -0.0000
vn 0.9462 0.3234 -0.0000
vn 0.9621 0.2726 -0.0000
vn 0.9818 0.1897 -0.0000
vn -0.0000 -0.1289 -0.9917
vn -0.0000 -0.0782 -0.9969
vn -0.0000 0.1284 -0.9917
vn -0.0000 0.3381 -0.9411
vn -0.0000 0.4349 -0.9005
vn -0.0000 0.4261 -0.9047
vn -0.0000 0.3598 -0.9330
vn -0.0000 0.3234 -0.9462
vn -0.0000 0.2726 -0.9621
vn -0.0000 0.1897 -0.9818
vn -0.9917 -0.1289 -0.0000
vn -0.9969 -0.0782 -0.0000
vn -0.9917 0.1284 -0.0000
vn -0.9411 0.3381 -0.0000
vn -0.9005 0.4349 -0.0000
vn -0.9047 0.4261 -0.0000
vn -0.9330 0.3598 -0.0000
vn -0.9462 0.3234 -0.0000
vn -0.9621 0.2726 -0.0000
vn -0.9818 0.1897 -0.0000
vn -0.0000 0.9304 0.3666
vn 1.0000 -0.0000 -0.0000
vn -0.0000 0.9304 -0.3666
vn -0.3666 0.9304 -0.0000
vn 0.3666 0.9304 -0.0000
vn -0.0000 -1.0000 -0.0000
vn -1.0000 -0.0000 -0.0000
vn -0.0000 -0.0000 1.0000
vn -0.0000 -0.0000 -1.0000
vn -0.9463 0.3234 -0.0000
s 0
f 2//1 19//1 18//1
f 4//2 29//2 19//2
f 8//3 39//3 29//3
f 6//4 18//4 39//4
f 4//5 6//5 8//5
f 48//6 1//6 5//6
f 47//7 9//7 48//7
f 46//8 10//8 47//8
f 45//9 11//9 46//9
f 45//10 13//10 12//10
f 43//11 13//11 44//11
f 42//12 14//12 43//12
f 41//13 15//13 42//13
f 40//14 16//14 41//14
f 40//15 18//15 17//15
f 38//16 5//16 7//16
f 37//17 48//17 38//17
f 36//18 47//18 37//18
f 35//19 46//19 36//19
f 34//20 45//20 35//20
f 33//21 44//21 34//21
f 32//22 43//22 33//22
f 31//23 42//23 32//23
f 30//24 41//24 31//24
f 30//25 39//25 40//25
f 28//26 7//26 3//26
f 27//27 38//27 28//27
f 26//28 37//28 27//28
f 25//29 36//29 26//29
f 24//30 35//30 25//30
f 23//31 34//31 24//31
f 22//32 33//32 23//32
f 21//33 32//33 22//33
f 20//34 31//34 21//34
f 20//35 29//35 30//35
f 9//36 3//36 1//36
f 10//37 28//37 9//37
f 11//38 27//38 10//38
f 12//39 26//39 11//39
f 13//40 25//40 12//40
f 14//41 24//41 13//41
f 14//42 22//42 23//42
f 15//43 21//43 22//43
f 17//44 21//44 16//44
f 17//45 19//45 20//45
f 1//46 51//46 5//46
f 51//47 56//47 52//47
f 7//48 50//48 3//48
f 3//49 49//49 1//49
f 5//50 52//50 7//50
f 56//51 53//51 54//51
f 50//52 53//52 49//52
f 49//53 55//53 51//53
f 52//54 54//54 50//54
f 2//1 4//1 19//1
f 4//2 8//2 29//2
f 8//3 6//3 39//3
f 6//4 2//4 18//4
f 4//5 2//5 6//5
f 48//6 9//6 1//6
f 47//7 10//7 9//7
f 46//8 11//8 10//8
f 45//9 12//9 11//9
f 45//10 44//10 13//10
f 43//11 14//11 13//11
f 42//12 15//12 14//12
f 41//13 16//13 15//13
f 40//14 17//14 16//14
f 40//15 39//15 18//15
f 38//16 48//16 5//16
f 37//17 47//17 48//17
f 36//18 46//18 47//18
f 35//19 45//19 46//19
f 34//20 44//20 45//20
f 33//21 43//21 44//21
f 32//22 42//22 43//22
f 31//23 41//23 42//23
f 30//24 40//24 41//24
f 30//25 29//25 39//25
f 28//26 38//26 7//26
f 27//27 37//27 38//27
f 26//28 36//28 37//28
f 25//29 35//29 36//29
f 24//30 34//30 35//30
f 23//31 33//31 34//31
f 22//32 32//32 33//32
f 21//33 31//33 32//33
f 20//34 30//34 31//34
f 20//35 19//35 29//35
f 9//36 28//36 3//36
f 10//37 27//37 28//37
f 11//38 26//38 27//38
f 12//39 25//39 26//39
f 13//40 24//40 25//40
f 14//41 23//41 24//41
f 14//42 15//42 22//42
f 15//55 16//55 21//55
f 17//44 20//44 21//44
f 17//45 18//45 19//45
f 1//46 49//46 51//46
f 51//47 55//47 56//47
f 7//48 52//48 50//48
f 3//49 50//49 49//49
f 5//50 51//50 52//50
f 56//51 55//51 53//51
f 50//52 54//52 53//52
f 49//53 53//53 55//53
f 52//54 56//54 54//54
