# Blender 3.5.1
# www.blender.org
o Plane
v 0.000000 -1.020496 -0.000000
v 5.899280 -0.007250 -0.000000
v 0.000000 1.020497 0.000000
v 5.899280 0.007250 0.000000
v 0.491607 -0.936059 -0.000000
v 0.983213 -0.851622 -0.000000
v 1.474820 -0.767185 -0.000000
v 1.966427 -0.682748 -0.000000
v 2.458033 -0.598310 -0.000000
v 2.949640 -0.513873 -0.000000
v 3.441247 -0.429436 -0.000000
v 3.932853 -0.344999 -0.000000
v 4.424460 -0.260562 -0.000000
v 4.916067 -0.176124 -0.000000
v 5.407673 -0.091687 -0.000000
v 5.407673 0.091687 0.000000
v 4.916067 0.176125 0.000000
v 4.424460 0.260562 0.000000
v 3.932853 0.344999 0.000000
v 3.441246 0.429436 0.000000
v 2.949640 0.513873 0.000000
v 2.458033 0.598311 0.000000
v 1.966426 0.682748 0.000000
v 1.474820 0.767185 0.000000
v 0.983213 0.851622 0.000000
v 0.491607 0.936059 0.000000
vn -0.0000 -0.0000 1.0000
s 0
f 2//1 16//1 15//1
f 5//1 3//1 1//1
f 6//1 26//1 5//1
f 7//1 25//1 6//1
f 8//1 24//1 7//1
f 9//1 23//1 8//1
f 10//1 22//1 9//1
f 11//1 21//1 10//1
f 11//1 19//1 20//1
f 13//1 19//1 12//1
f 14//1 18//1 13//1
f 15//1 17//1 14//1
f 2//1 4//1 16//1
f 5//1 26//1 3//1
f 6//1 25//1 26//1
f 7//1 24//1 25//1
f 8//1 23//1 24//1
f 9//1 22//1 23//1
f 10//1 21//1 22//1
f 11//1 20//1 21//1
f 11//1 12//1 19//1
f 13//1 18//1 19//1
f 14//1 17//1 18//1
f 15//1 16//1 17//1
