# Blender 3.5.1
# www.blender.org
o Plane
v -2.461156 -0.587520 0.488484
v 3.438124 0.425727 0.488484
v -2.461156 1.453473 0.488484
v 3.438124 0.440227 0.488484
v -1.969549 -0.503083 0.488484
v -1.477942 -0.418645 0.488484
v -0.986336 -0.334208 0.488484
v -0.494729 -0.249771 0.488484
v -0.003122 -0.165334 0.488484
v 0.488484 -0.080897 0.488484
v 0.980091 0.003541 0.488484
v 1.471697 0.087978 0.488484
v 1.963304 0.172415 0.488484
v 2.454911 0.256852 0.488484
v 2.946517 0.341289 0.488484
v 2.946517 0.524664 0.488484
v 2.454911 0.609101 0.488484
v 1.963304 0.693538 0.488484
v 1.471697 0.777976 0.488484
v 0.980091 0.862413 0.488484
v 0.488484 0.946850 0.488484
v -0.003123 1.031287 0.488484
v -0.494729 1.115724 0.488484
v -0.986336 1.200162 0.488484
v -1.477942 1.284599 0.488484
v -1.969549 1.369036 0.488484
vn -0.0000 -0.0000 1.0000
s 0
f 2//1 16//1 15//1
f 5//1 3//1 1//1
f 6//1 26//1 5//1
f 7//1 25//1 6//1
f 8//1 24//1 7//1
f 9//1 23//1 8//1
f 10//1 22//1 9//1
f 11//1 21//1 10//1
f 12//1 20//1 11//1
f 13//1 19//1 12//1
f 14//1 18//1 13//1
f 15//1 17//1 14//1
f 2//1 4//1 16//1
f 5//1 26//1 3//1
f 6//1 25//1 26//1
f 7//1 24//1 25//1
f 8//1 23//1 24//1
f 9//1 22//1 23//1
f 10//1 21//1 22//1
f 11//1 20//1 21//1
f 12//1 19//1 20//1
f 13//1 18//1 19//1
f 14//1 17//1 18//1
f 15//1 16//1 17//1
